<?xml version="1.0" encoding="UTF-8"?>
<svg id="Layer_1" data-name="Layer 1" xmlns="http://www.w3.org/2000/svg" viewBox="0 0 200 200">
  <defs>
    <style>
      .cls-1 {
        stroke: #002d58;
      }

      .cls-1, .cls-2 {
        fill: none;
        stroke-linecap: round;
        stroke-linejoin: round;
        stroke-width: 4px;
      }

      .cls-2 {
        stroke: #f53b29;
      }
    </style>
  </defs>
  <line class="cls-2" x1="52.85" y1="124.25" x2="150.57" y2="124.25"/>
  <line class="cls-2" x1="150.79" y1="105.31" x2="171.7" y2="105.31"/>
  <line class="cls-2" x1="150.79" y1="97.63" x2="171.7" y2="97.63"/>
  <line class="cls-2" x1="30.82" y1="105.31" x2="51.73" y2="105.31"/>
  <line class="cls-2" x1="30.82" y1="97.63" x2="51.73" y2="97.63"/>
  <polygon class="cls-1" points="23.48 183.78 183.19 183.78 183.19 176.92 23.19 176.92 23.48 183.78"/>
  <path class="cls-1" d="M29.7,176.03v-80.25s1.2-6.96,11.88-15.53c0,0,11.26,8.13,11.26,15.35v80.43"/>
  <path class="cls-1" d="M150.57,176.03v-80.25s1.2-6.96,11.88-15.53c0,0,11.26,8.13,11.26,15.35v80.43"/>
  <line class="cls-1" x1="52.85" y1="130.83" x2="150.57" y2="130.83"/>
  <line class="cls-1" x1="64.28" y1="176.03" x2="64.28" y2="130.83"/>
  <line class="cls-1" x1="78.11" y1="174.54" x2="78.11" y2="130.83"/>
  <line class="cls-1" x1="88.73" y1="130.83" x2="88.73" y2="176.92"/>
  <line class="cls-1" x1="114.82" y1="130.83" x2="114.82" y2="176.92"/>
  <line class="cls-1" x1="125.52" y1="130.83" x2="125.52" y2="175.85"/>
  <polyline class="cls-2" points="64.28 111.26 64.28 105.14 88.73 105.14 88.73 111.26"/>
  <line class="cls-1" x1="139.7" y1="130.83" x2="139.7" y2="175.85"/>
  <polyline class="cls-2" points="115.19 111.26 115.19 105.14 139.64 105.14 139.64 111.26"/>
  <line class="cls-1" x1="52.85" y1="113.4" x2="149.01" y2="113.4"/>
  <polyline class="cls-2" points="68.56 103.68 68.56 91.97 133.71 91.97 133.71 103.68"/>
  <line class="cls-2" x1="86.93" y1="103.68" x2="86.93" y2="93.09"/>
  <line class="cls-2" x1="116.8" y1="102.17" x2="116.8" y2="93.09"/>
  <polyline class="cls-1" points="71.99 79.93 71.99 70.05 129.42 70.05 129.42 79.93"/>
  <polyline class="cls-1" points="78.78 67.58 78.78 58.14 124.64 58.14 124.64 67.58"/>
  <polyline class="cls-2" points="69.99 91.97 69.99 81.4 131.42 81.4 131.42 91.97"/>
  <path class="cls-1" d="M78.73,58.3s.99-12.66,14.98-18.38v-10.29h14.17v10.57s14.34,2,15.65,16.86"/>
  <path class="cls-1" d="M97.13,28.1v-6.33c0-1.85.36-3.36,1.73-4.61,1.2-1.09,2.77-1.61,4.3.66.74,1.1,1.41,2.09,1.41,3.42v7.31"/>
</svg>