<?xml version="1.0" encoding="UTF-8"?>
<svg id="Layer_1" data-name="Layer 1" xmlns="http://www.w3.org/2000/svg" viewBox="0 0 200 200">
  <defs>
    <style>
      .cls-1 {
        stroke: #002d58;
      }

      .cls-1, .cls-2 {
        fill: none;
        stroke-linecap: round;
        stroke-linejoin: round;
        stroke-width: 4px;
      }

      .cls-2 {
        stroke: #f53b29;
      }
    </style>
  </defs>
  <path class="cls-2" d="M121.33,174.97v-28.77c0-2.29-.65-4.56-2.01-6.4-1.24-1.67-3.12-3.11-5.88-2.71-2,.29-3.47,1.13-4.54,2.11-1.77,1.63-2.68,3.99-2.68,6.39v30.02"/>
  <path class="cls-2" d="M93.64,174.97v-28.77c0-2.29-.65-4.56-2.01-6.4-1.24-1.67-3.12-3.11-5.88-2.71-2,.29-3.47,1.13-4.54,2.11-1.77,1.63-2.68,3.99-2.68,6.39v30.02"/>
  <path class="cls-2" d="M65.96,174.97v-28.77c0-2.29-.65-4.56-2.01-6.4-1.24-1.67-3.12-3.11-5.88-2.71-2,.29-3.47,1.13-4.54,2.11-1.77,1.63-2.68,3.99-2.68,6.39v30.02"/>
  <path class="cls-2" d="M38.28,174.97v-28.77c0-2.29-.65-4.56-2.01-6.4-1.24-1.67-3.12-3.11-5.88-2.71-2,.29-3.47,1.13-4.54,2.11-1.77,1.63-2.68,3.99-2.68,6.39v30.02"/>
  <path class="cls-2" d="M148.07,174.97v-28.77c0-2.29-.65-4.56-2.01-6.4-1.24-1.67-3.12-3.11-5.88-2.71-2,.29-3.47,1.13-4.54,2.11-1.77,1.63-2.68,3.99-2.68,6.39v30.02"/>
  <path class="cls-2" d="M102.64,49.7v-11.59s-.64-2.95-2.69-2.62-2.46,2.5-2.46,2.5v11.95"/>
  <path class="cls-2" d="M78.54,116.12v-13.97s-.64-3.55-2.69-3.16-2.46,3.02-2.46,3.02v14.41"/>
  <path class="cls-2" d="M127.85,116.12v-13.97s-.64-3.55-2.69-3.16-2.46,3.02-2.46,3.02v14.41"/>
  <path class="cls-2" d="M174.81,174.97v-28.77c0-2.29-.65-4.56-2.01-6.4-1.24-1.67-3.12-3.11-5.88-2.71-2,.29-3.47,1.13-4.54,2.11-1.77,1.63-2.68,3.99-2.68,6.39v30.02"/>
  <polygon class="cls-1" points="13.67 175.63 186.85 175.63 186.85 116.42 14.11 116.42 13.67 175.63"/>
  <polyline class="cls-1" points="64.83 115.09 64.83 89.82 135.99 89.82 135.99 115.09"/>
  <line class="cls-1" x1="6.87" y1="125.75" x2="193.13" y2="125.75"/>
  <line class="cls-1" x1="86.52" y1="116.42" x2="86.52" y2="89.82"/>
  <line class="cls-1" x1="113.77" y1="89.82" x2="113.77" y2="116.42"/>
  <path class="cls-1" d="M64.83,92.82s-10.12-7.15,0-14.96c0,0,7.84-26.6,35.43-28.09,0,0,23.93-1.5,34.9,28.09,0,0,11.47,5.15.83,12.8"/>
  <path class="cls-1" d="M90.73,51.43v-25.93s.05-9.64,9.69-11.47c0,0,9.31.83,9.47,11.3s0,26.1,0,26.1"/>
  <line class="cls-1" x1="86.08" y1="29.92" x2="114.35" y2="29.92"/>
</svg>