<?xml version="1.0" encoding="UTF-8"?>
<svg id="Layer_1" data-name="Layer 1" xmlns="http://www.w3.org/2000/svg" viewBox="0 0 200 200">
  <defs>
    <style>
      .cls-1 {
        stroke: #002d58;
      }

      .cls-1, .cls-2 {
        fill: none;
        stroke-linecap: round;
        stroke-linejoin: round;
        stroke-width: 4px;
      }

      .cls-2 {
        stroke: #f53b29;
      }
    </style>
  </defs>
  <g>
    <path class="cls-2" d="M85.77,175.34v-30.93c0-2.89.8-5.76,2.44-8.14,1.76-2.54,4.72-5.02,9.64-5.33,7.63-.48,10.42,6.18,11.38,9.84.31,1.19.46,2.42.46,3.65v30.9"/>
    <line class="cls-2" x1="61.46" y1="70.93" x2="61.46" y2="99.36"/>
    <line class="cls-2" x1="68.17" y1="99.36" x2="68.17" y2="175.34"/>
    <line class="cls-2" x1="61.46" y1="85.15" x2="135.08" y2="85.15"/>
    <line class="cls-2" x1="147.77" y1="48" x2="164.54" y2="48"/>
    <line class="cls-2" x1="31.25" y1="48" x2="48.02" y2="48"/>
    <line class="cls-2" x1="127.28" y1="99.36" x2="127.28" y2="175.34"/>
    <line class="cls-2" x1="135.08" y1="70.93" x2="135.08" y2="99.36"/>
    <rect class="cls-1" x="18.73" y="70.93" width="157.99" height="28.43"/>
    <line class="cls-1" x1="169.75" y1="99.36" x2="169.75" y2="173.91"/>
    <line class="cls-1" x1="26.96" y1="99.36" x2="26.96" y2="173.91"/>
    <line class="cls-1" x1="51.78" y1="99.36" x2="51.78" y2="174.08"/>
    <line class="cls-1" x1="143.54" y1="99.36" x2="143.54" y2="175.54"/>
    <polyline class="cls-1" points="141.79 70.93 141.79 57.31 171.35 57.31 171.35 70.93"/>
    <polyline class="cls-1" points="24.91 69.25 24.91 57.31 54.36 57.31 54.36 70.93"/>
    <path class="cls-1" d="M30.99,55.97v-8.52s-5-7.34,2.53-14.86,6.47-14.24,6.47-14.24c0,0,1.34,9.14,7.91,14.78s1.25,14.32,1.25,14.32v8.52"/>
    <path class="cls-1" d="M147.53,55.97v-8.52s-5-7.34,2.53-14.86c7.52-7.52,6.47-14.24,6.47-14.24,0,0,1.34,9.14,7.91,14.78s1.25,14.32,1.25,14.32v8.52"/>
  </g>
  <line class="cls-1" x1="21.29" y1="175.54" x2="177.35" y2="175.54"/>
</svg>