<?xml version="1.0" encoding="UTF-8"?>
<svg id="Layer_1" data-name="Layer 1" xmlns="http://www.w3.org/2000/svg" viewBox="0 0 200 200">
  <defs>
    <style>
      .cls-1 {
        stroke: #002d58;
      }

      .cls-1, .cls-2 {
        fill: none;
        stroke-linecap: round;
        stroke-linejoin: round;
        stroke-width: 4px;
      }

      .cls-2 {
        stroke: #f53b29;
      }
    </style>
  </defs>
  <line class="cls-2" x1="11.66" y1="100.33" x2="11.66" y2="113.64"/>
  <line class="cls-2" x1="18.79" y1="96.06" x2="18.79" y2="113.64"/>
  <line class="cls-2" x1="27.19" y1="88.48" x2="27.19" y2="113.64"/>
  <line class="cls-2" x1="35.59" y1="74.59" x2="35.59" y2="113.64"/>
  <line class="cls-2" x1="43.99" y1="74.59" x2="43.99" y2="113.64"/>
  <line class="cls-2" x1="52.38" y1="88.48" x2="52.38" y2="113.64"/>
  <line class="cls-2" x1="60.78" y1="96.06" x2="60.78" y2="113.64"/>
  <line class="cls-2" x1="69.18" y1="100.23" x2="69.18" y2="113.64"/>
  <line class="cls-2" x1="77.58" y1="102.9" x2="77.58" y2="113.64"/>
  <line class="cls-2" x1="85.98" y1="104.53" x2="85.98" y2="113.64"/>
  <line class="cls-2" x1="94.38" y1="105.39" x2="94.38" y2="113.64"/>
  <line class="cls-2" x1="102.78" y1="105.64" x2="102.78" y2="113.64"/>
  <line class="cls-2" x1="111.18" y1="105.39" x2="111.18" y2="113.64"/>
  <line class="cls-2" x1="119.58" y1="103.85" x2="119.58" y2="113.64"/>
  <line class="cls-2" x1="127.98" y1="101.31" x2="127.98" y2="113.64"/>
  <line class="cls-2" x1="136.38" y1="97.59" x2="136.38" y2="113.64"/>
  <line class="cls-2" x1="144.78" y1="91.17" x2="144.78" y2="113.64"/>
  <line class="cls-2" x1="153.18" y1="74.59" x2="153.18" y2="113.64"/>
  <line class="cls-2" x1="161.57" y1="74.59" x2="161.57" y2="113.64"/>
  <line class="cls-2" x1="169.97" y1="86.88" x2="169.97" y2="113.64"/>
  <line class="cls-2" x1="178.37" y1="94.94" x2="178.37" y2="113.64"/>
  <line class="cls-2" x1="186.77" y1="100.23" x2="186.77" y2="113.64"/>
  <polygon class="cls-1" points="33.2 144.12 45.22 144.12 45.22 123.1 152.97 123.1 152.97 144.12 167.05 144.12 167.05 123.1 190.01 123.1 190.01 113.95 8.42 113.95 8.42 122.91 33.2 122.91 33.2 144.12"/>
  <path class="cls-1" d="M8.42,101.81s24.5-9.41,25.64-29.77h10.15s1.6,31.67,53.69,33.53c52.09,1.85,55.76-33.53,55.76-33.53h10.14s-.63,17.64,27.78,30.71"/>
  <circle class="cls-1" cx="39.14" cy="65.21" r="6.43"/>
  <circle class="cls-1" cx="158.73" cy="65.21" r="6.43"/>
</svg>