<?xml version="1.0" encoding="UTF-8"?>
<svg id="Layer_1" data-name="Layer 1" xmlns="http://www.w3.org/2000/svg" viewBox="0 0 200 200">
  <defs>
    <style>
      .cls-1, .cls-2, .cls-3, .cls-4 {
        fill: none;
        stroke-linecap: round;
        stroke-width: 4px;
      }

      .cls-1, .cls-3 {
        stroke: #002d58;
      }

      .cls-1, .cls-4 {
        stroke-linejoin: round;
      }

      .cls-2, .cls-3 {
        stroke-miterlimit: 10;
      }

      .cls-2, .cls-4 {
        stroke: #f53b29;
      }
    </style>
  </defs>
  <line class="cls-3" x1="83.24" y1="89.94" x2="118.49" y2="89.94"/>
  <line class="cls-3" x1="133.57" y1="100.26" x2="179.72" y2="100.26"/>
  <line class="cls-3" x1="135.02" y1="89.94" x2="184.35" y2="89.94"/>
  <line class="cls-4" x1="83.31" y1="66.12" x2="118.51" y2="66.12"/>
  <polyline class="cls-4" points="133.48 152.12 133.48 63.82 118.49 63.82 118.49 153.06"/>
  <line class="cls-3" x1="20.37" y1="89.94" x2="68.25" y2="89.94"/>
  <line class="cls-3" x1="23.52" y1="100.26" x2="68.25" y2="100.26"/>
  <polyline class="cls-4" points="83.24 152.12 83.24 63.82 68.25 63.82 68.25 153.06"/>
  <line class="cls-3" x1="13.82" y1="153.06" x2="191.19" y2="153.06"/>
  <line class="cls-1" x1="17.3" y1="75.2" x2="186.05" y2="75.2"/>
  <line class="cls-4" x1="80.86" y1="52.3" x2="120.67" y2="52.3"/>
  <path class="cls-2" d="M70.52,63.52v-19.9s-.23-3.93,3.13-4.8c0,0,6.83-1.84,7.21,4.8s.12,20.2.12,20.2"/>
  <path class="cls-4" d="M120.62,62.09v-19.9s-.23-3.93,3.13-4.8c0,0,6.83-1.84,7.21,4.8s.12,21.63.12,21.63"/>
  <polyline class="cls-1" points="23.52 153.06 23.52 100.65 17.19 86.64 23.52 86.64 23.52 75.2"/>
  <polyline class="cls-1" points="179.72 153.06 179.72 100.65 186.05 86.64 179.72 86.64 179.72 75.2"/>
  <path class="cls-3" d="M33.49,151.18v-26.04c0-2.94,1.19-5.74,3.29-7.79,1.93-1.89,4.57-4.09,7.61-5.53,0,0,10.75,6.42,10.75,11.39v29.4"/>
  <path class="cls-3" d="M148.86,151.18v-26.04c0-2.94,1.19-5.74,3.29-7.79,1.93-1.89,4.57-4.09,7.61-5.53,0,0,10.75,6.42,10.75,11.39v29.4"/>
  <path class="cls-3" d="M86.52,150.66v-35.5c0-4,1.58-7.82,4.37-10.63,2.56-2.57,6.08-5.57,10.11-7.54,0,0,14.29,8.75,14.29,15.53v40.09"/>
</svg>