<?xml version="1.0" encoding="UTF-8"?>
<svg id="Layer_1" data-name="Layer 1" xmlns="http://www.w3.org/2000/svg" viewBox="0 0 200 200">
  <defs>
    <style>
      .cls-1 {
        stroke: #002d58;
      }

      .cls-1, .cls-2 {
        stroke-width: 4px;
      }

      .cls-1, .cls-2, .cls-3 {
        fill: none;
        stroke-linecap: round;
        stroke-linejoin: round;
      }

      .cls-2, .cls-3 {
        stroke: #f53b29;
      }

      .cls-3 {
        stroke-width: 3px;
      }
    </style>
  </defs>
  <line class="cls-1" x1="67.3" y1="75.73" x2="134.71" y2="75.73"/>
  <line class="cls-1" x1="77.92" y1="68.87" x2="125.49" y2="68.87"/>
  <line class="cls-1" x1="59.28" y1="82.37" x2="142.64" y2="82.37"/>
  <path class="cls-2" d="M43.21,120.95c0-31.84,25.81-57.64,57.64-57.64s57.64,25.81,57.64,57.64"/>
  <line class="cls-3" x1="123.14" y1="129.94" x2="123.14" y2="121.56"/>
  <line class="cls-3" x1="116.72" y1="129.94" x2="116.72" y2="121.56"/>
  <line class="cls-3" x1="131.58" y1="130.61" x2="131.58" y2="122.23"/>
  <line class="cls-3" x1="138.6" y1="129.94" x2="138.6" y2="121.56"/>
  <line class="cls-3" x1="146.07" y1="129.94" x2="146.07" y2="121.56"/>
  <line class="cls-3" x1="153.24" y1="129.94" x2="153.24" y2="121.56"/>
  <line class="cls-1" x1="20.19" y1="150.24" x2="179.27" y2="150.24"/>
  <line class="cls-1" x1="112.65" y1="131.86" x2="179.27" y2="131.86"/>
  <line class="cls-2" x1="112.65" y1="141.5" x2="179.27" y2="141.5"/>
  <line class="cls-1" x1="112.2" y1="121.56" x2="160.38" y2="121.56"/>
  <line class="cls-2" x1="82.17" y1="106.64" x2="118.02" y2="106.64"/>
  <line class="cls-2" x1="82.17" y1="115.83" x2="118.02" y2="115.83"/>
  <line class="cls-2" x1="82.17" y1="97.42" x2="118.02" y2="97.42"/>
  <line class="cls-1" x1="160.49" y1="129.94" x2="160.49" y2="121.56"/>
  <line class="cls-1" x1="38.36" y1="129.94" x2="38.36" y2="121.56"/>
  <line class="cls-3" x1="45.53" y1="129.94" x2="45.53" y2="121.56"/>
  <line class="cls-3" x1="52.7" y1="129.94" x2="52.7" y2="121.56"/>
  <line class="cls-3" x1="59.87" y1="129.94" x2="59.87" y2="121.56"/>
  <line class="cls-3" x1="67.04" y1="129.94" x2="67.04" y2="121.56"/>
  <line class="cls-3" x1="74.21" y1="129.94" x2="74.21" y2="121.56"/>
  <line class="cls-3" x1="81.39" y1="129.94" x2="81.39" y2="121.56"/>
  <line class="cls-1" x1="38.7" y1="121.56" x2="86.88" y2="121.56"/>
  <line class="cls-2" x1="20.55" y1="141.5" x2="87.17" y2="141.5"/>
  <line class="cls-1" x1="20.77" y1="131.86" x2="87.4" y2="131.86"/>
  <line class="cls-1" x1="20.26" y1="150.3" x2="20.26" y2="132.4"/>
  <line class="cls-1" x1="88.16" y1="150.3" x2="88.16" y2="91.16"/>
  <line class="cls-1" x1="111.01" y1="150.3" x2="111.01" y2="91.16"/>
  <g>
    <line class="cls-1" x1="88.48" y1="60.2" x2="113.78" y2="60.2"/>
    <line class="cls-1" x1="94.37" y1="54.84" x2="107.89" y2="54.84"/>
    <line class="cls-1" x1="94.37" y1="49.7" x2="107.89" y2="49.7"/>
  </g>
  <line class="cls-1" x1="179.81" y1="150.3" x2="179.81" y2="132.4"/>
</svg>