<?xml version="1.0" encoding="UTF-8"?>
<svg id="Layer_1" data-name="Layer 1" xmlns="http://www.w3.org/2000/svg" viewBox="0 0 200 200">
  <defs>
    <style>
      .cls-1 {
        stroke: #002d58;
      }

      .cls-1, .cls-2 {
        fill: none;
        stroke-linecap: round;
        stroke-linejoin: round;
        stroke-width: 4px;
      }

      .cls-2 {
        stroke: #f53b29;
      }
    </style>
  </defs>
  <line class="cls-2" x1="29.17" y1="93.97" x2="29.17" y2="79"/>
  <line class="cls-2" x1="43.03" y1="93.97" x2="43.03" y2="79"/>
  <line class="cls-2" x1="56.89" y1="93.97" x2="56.89" y2="79"/>
  <line class="cls-2" x1="70.75" y1="93.97" x2="70.75" y2="79"/>
  <line class="cls-2" x1="80.46" y1="85.43" x2="122.78" y2="85.43"/>
  <polygon class="cls-1" points="16.7 166.42 80.46 166.42 80.46 78.82 16.86 78.82 16.7 166.42"/>
  <line class="cls-2" x1="134.7" y1="93.97" x2="134.7" y2="79"/>
  <line class="cls-2" x1="148.19" y1="93.97" x2="148.19" y2="79"/>
  <line class="cls-2" x1="161.68" y1="93.97" x2="161.68" y2="79"/>
  <line class="cls-2" x1="175.17" y1="93.97" x2="175.17" y2="79"/>
  <path class="cls-2" d="M115.62,166.05v-50.64c0-4.19-1.19-7.01-3.68-10.38-2.26-3.06-5.71-5.68-10.76-4.96-3.67.53-6.36,2.06-8.31,3.87-3.23,2.99-4.9,7.3-4.9,11.7v50.59"/>
  <polygon class="cls-1" points="122.59 166.42 186.35 166.42 186.35 78.82 122.75 78.82 122.59 166.42"/>
  <line class="cls-2" x1="83.69" y1="59.6" x2="83.69" y2="40.56"/>
  <line class="cls-2" x1="119.54" y1="59.6" x2="119.54" y2="40.56"/>
  <polygon class="cls-1" points="61.98 40.38 142.18 40.38 142.18 27.81 62.18 27.81 61.98 40.38"/>
  <line class="cls-1" x1="69.02" y1="166.38" x2="149.34" y2="166.38"/>
  <line class="cls-1" x1="16.9" y1="94.3" x2="80.64" y2="94.3"/>
  <line class="cls-1" x1="122.98" y1="94.3" x2="186.17" y2="94.3"/>
  <line class="cls-1" x1="137.19" y1="66.95" x2="181.36" y2="66.95"/>
  <line class="cls-1" x1="25.75" y1="66.95" x2="67.89" y2="66.95"/>
  <line class="cls-1" x1="25.66" y1="78.82" x2="25.66" y2="67.18"/>
  <line class="cls-2" x1="68.26" y1="72.13" x2="137.38" y2="72.13"/>
  <line class="cls-1" x1="181.46" y1="78.82" x2="181.46" y2="67.18"/>
  <line class="cls-1" x1="67.98" y1="78.82" x2="67.98" y2="40.56"/>
  <line class="cls-1" x1="137.29" y1="78.82" x2="137.29" y2="40.56"/>
  <line class="cls-1" x1="68.26" y1="59.56" x2="137.38" y2="59.56"/>
  <line class="cls-2" x1="34.9" y1="120.96" x2="34.9" y2="103.21"/>
  <line class="cls-2" x1="48.95" y1="120.96" x2="48.95" y2="103.21"/>
  <line class="cls-2" x1="62.99" y1="120.96" x2="62.99" y2="103.21"/>
  <line class="cls-2" x1="140.98" y1="120.96" x2="140.98" y2="103.21"/>
  <line class="cls-2" x1="155.03" y1="120.96" x2="155.03" y2="103.21"/>
  <line class="cls-2" x1="169.07" y1="120.96" x2="169.07" y2="103.21"/>
</svg>